<svg xmlns="http://www.w3.org/2000/svg" width="200" height="200" style="overflow: visible;" viewBox="0 200 500 300" data-svgdocument="" id="_uI8nw7n8RAeF_Ye0ri7TY" class="fl-svgdocument" x="0" y="0" data-bbox="8.95999990298168 129.61333831709422 494.0800177259442 216.58804919558938"><defs id="_2a7qZeT6ZMdoick2iZkal" transform="matrix(1.6680803298950195, 0, 0, 1.6680803298950195, -175.2905731201172, -171.3488006591797)" data-uid="o_f2542hc17_4"></defs><g transform="matrix(4.693481922149658, 0, 0, 4.693481922149658, 8.955368041992188, 129.7969207763672)" fill="rgba(255, 255, 255, 1)" data-uid="o_f2542hc17_5"><path d="M54.89 77.48a2.42 2.42 0 0 0 .54 0 11.28 11.28 0 0 0 1.13-.34 11.67 11.67 0 0 1 2-.41A4.36 4.36 0 0 1 60.7 77a6.56 6.56 0 0 1 1.17.55.68.68 0 0 1 .35.64 2.23 2.23 0 0 1-.31 1.13.88.88 0 0 1-.46.45 5.92 5.92 0 0 1-.81.27.58.58 0 0 1-.32 0l-1.24-.38a13.75 13.75 0 0 0-4.35-.74 1.94 1.94 0 0 0-.54.05c-.73.24-.78 0-1.38.89a18.08 18.08 0 0 1-1.33 1.57s0 .07 0 .1a.1.1 0 0 0 .13.11c1.17-.23 2.36-.33 3.53-.54a2.08 2.08 0 0 1 1.26.24l.47.26a1.31 1.31 0 0 1 .57 1.5.87.87 0 0 1-.27.46 2.6 2.6 0 0 1-1.77.69 3.79 3.79 0 0 1-1.79-.31 5.69 5.69 0 0 0-3.28-.44.28.28 0 0 0-.24.3 6.32 6.32 0 0 0 .45 1.33 6.3 6.3 0 0 1 .5 1.42c.16.66.38 1.31.6 2a4.72 4.72 0 0 1 .21 1.17 1.52 1.52 0 0 1-.06.42.38.38 0 0 1-.33.24.35.35 0 0 1-.38-.15 5.27 5.27 0 0 1-.56-1.51 17 17 0 0 0-1.1-3.39 2 2 0 0 0-.23-.36.23.23 0 0 0-.29 0 7.32 7.32 0 0 0-.77.9 16.38 16.38 0 0 0-1.48 2.78 6.92 6.92 0 0 0 .52.69 14 14 0 0 1 1.23 1.64c.33.51.69 1 1.07 1.49s.77 1 1.13 1.59a1.94 1.94 0 0 1 .25.59.68.68 0 0 1 0 .31c0 .13-.28.22-.36.14a11.32 11.32 0 0 1-1.27-1.32c-.34-.51-.75-1-1.09-1.49a24.82 24.82 0 0 0-1.86-2.24.27.27 0 0 0-.44.1l-.09.2a1.63 1.63 0 0 1-.09.19 11.38 11.38 0 0 0-1.17 2.9 1.63 1.63 0 0 1-.11.31.43.43 0 0 1-.32.26 3.1 3.1 0 0 1-.43 0 .29.29 0 0 1-.25-.3c.08-.43.13-.86.24-1.28a13.19 13.19 0 0 1 .85-2.1q.33-.68.66-1.38a6.24 6.24 0 0 0-1.17-1.28c-.24-.22-.51-.41-.76-.61a.23.23 0 0 0-.36.07 26.3 26.3 0 0 1-1.12 2.69 2 2 0 0 0-.2.72c-.05.76-.37 1.47-.49 2.22a.34.34 0 0 1-.09.19c-.37.27-.35.69-.44 1.07a1.66 1.66 0 0 1-.06.21.35.35 0 0 1-.34.21.39.39 0 0 1-.32-.24 1.22 1.22 0 0 1 0-.32A4.53 4.53 0 0 1 40 92.51a6.27 6.27 0 0 0 .19-1 10 10 0 0 1 .62-2.62c.26-.63.46-1.29.7-1.93.1-.27.24-.52.35-.79a.41.41 0 0 0-.21-.54A16.84 16.84 0 0 1 39.11 84a32 32 0 0 0-3.29-2.27c-.28-.17-.57-.31-.86-.46l-1.06-.56s-.14 0-.17.08a5.36 5.36 0 0 1-1.19 1.09 4.29 4.29 0 0 0-1.23 1.35 3 3 0 0 1-1.94 1.25 1.66 1.66 0 0 1-1.61-.39 3.44 3.44 0 0 0-.4-.37 2.45 2.45 0 0 1-1-1.83 1.58 1.58 0 0 1 .18-1c.1-.22.25-.43.36-.66a.46.46 0 0 0-.07-.51c-.21-.23-.44-.47-.67-.7a1.77 1.77 0 0 1 .18-2.67 7.37 7.37 0 0 1 .68-.5.51.51 0 0 0-.21-.5 19.39 19.39 0 0 0-1.91-1.59 2.21 2.21 0 0 1-.82-.84 1 1 0 0 0-.38-.37 1.43 1.43 0 0 1-.54-.66 5.55 5.55 0 0 0-.83-1.25.35.35 0 0 0-.39-.13c-.9.26-1.85.29-2.76.51a1.16 1.16 0 0 1-.64 0 8 8 0 0 0-1.82-.22 2.5 2.5 0 0 1-2.42-2.33 7.88 7.88 0 0 1 0-1 .89.89 0 0 1 .35-.76c.29-.22.59-.41.89-.61l1-.64a3.77 3.77 0 0 1 .22-1.09.57.57 0 0 0-.1-.61 6.55 6.55 0 0 1-.77-1.3.93.93 0 0 0-.18-.26 9.19 9.19 0 0 1-1.34-2.09.47.47 0 0 0-.42-.3 30.63 30.63 0 0 1-3.3-.53c-.14 0-.28-.07-.43-.08-.5-.05-1-.19-1.49-.22s-.75-.51-1.18-.71A2.64 2.64 0 0 1 6 56.21a.91.91 0 0 1 0-.43c.07-.2.17-.4.25-.59A1 1 0 0 1 7 54.57c.6-.14 1.14-.45 1.75-.55a.4.4 0 0 0 .31-.28c.11-.3.21-.61.35-.9a1 1 0 0 0 0-1c-.45-.78-.79-1.62-1.27-2.38a11.7 11.7 0 0 1-.52-1.07A.72.72 0 0 0 6.78 48a2.19 2.19 0 0 0-.62.17c-.82.39-1.7.58-2.55.89a5.37 5.37 0 0 1-1.5.2 1 1 0 0 1-.41-.11c-.25-.14-.49-.3-.74-.45a2 2 0 0 1-.85-1.08 1.42 1.42 0 0 1 .2-1.43 7 7 0 0 1 .57-.67c-.18-.31-.33-.63-.53-.93a2 2 0 0 1-.17-1.86 4.47 4.47 0 0 1 .27-.59 1.39 1.39 0 0 1 1.17-.84l.11 0A.38.38 0 0 0 2 41a5.14 5.14 0 0 1 .15-1.17 2.09 2.09 0 0 1 1.59-1.46 1.82 1.82 0 0 1 1.17.12A3 3 0 0 1 6 39.28a4.64 4.64 0 0 0 .4.36.24.24 0 0 0 .28-.08.48.48 0 0 0 .09-.19.9.9 0 0 1 .88-.68 11.66 11.66 0 0 1 1.18-.06 1.23 1.23 0 0 1 1 .51 6.9 6.9 0 0 1 .42.63 3.47 3.47 0 0 1 .31 2.41 1.24 1.24 0 0 1-.16.4c-.35.63-.7 1.26-1.06 1.88s-.77 1.14-1.06 1.76a.73.73 0 0 1-.2.26c-.39.34-.3.48-.09.81a22.19 22.19 0 0 1 2 3.93.41.41 0 0 0 .52.26 3.31 3.31 0 0 0 .42-.12l.38-.2a.87.87 0 0 1 .83 0 6 6 0 0 1 1.06.75c.13.12.27.23.41.34a.2.2 0 0 0 .28-.07c.08-.12.13-.26.22-.37a1.19 1.19 0 0 1 1.38-.31 4.48 4.48 0 0 1 .56.32 1.38 1.38 0 0 1 .6.87 3.66 3.66 0 0 1 .09 1.71c-.06.25-.08.5-.13.75a2.38 2.38 0 0 1-.42 1 4.93 4.93 0 0 0-.71 1.21c-.14.37-.53.61-.58 1s-.05.72-.08 1.13a6.3 6.3 0 0 0 .66 1.05 16.61 16.61 0 0 1 1.22 1.79 3.29 3.29 0 0 0 .48.58.39.39 0 0 0 .57.07c.09-.06.17-.14.26-.19a1.83 1.83 0 0 1 2.13.07c.12.08.22.19.35.26a.47.47 0 0 0 .31 0c.35-.09.68-.22 1-.32a3.53 3.53 0 0 1 .63-.13.86.86 0 0 1 .42.06 3.1 3.1 0 0 1 .58.28 1.47 1.47 0 0 1 .32.29l.69.92c.12 0 .19 0 .25 0a1.22 1.22 0 0 1 .84.07 1.9 1.9 0 0 1 .81.85 2.43 2.43 0 0 1 .23 1.48.64.64 0 0 1-.11.3 8.08 8.08 0 0 1-1 1.3 10.49 10.49 0 0 0-1.35 1.55 6.67 6.67 0 0 1-.52.55.47.47 0 0 0 0 .59 20 20 0 0 0 1.36 1.54 26.35 26.35 0 0 0 2.12 1.84l.36.23a3.1 3.1 0 0 0 .7-.7 1.78 1.78 0 0 1 1.33-.65 1.59 1.59 0 0 1 1 .3l1.31 1a.23.23 0 0 0 .3 0l.07-.08a2.85 2.85 0 0 1 2.07-1 1 1 0 0 1 .62.15c.24.16.46.34.69.52a.43.43 0 0 1 .14.16 3.66 3.66 0 0 1 .48 1.86 6.19 6.19 0 0 1-.5 2.31 2.89 2.89 0 0 1-.37.64 1.21 1.21 0 0 0-.26.59.42.42 0 0 0 .15.38 7 7 0 0 1 .79.35c1.06.68 2.12 1.36 3.12 2.14a28.28 28.28 0 0 0 2.93 2 .23.23 0 0 0 .27-.1c.2-.42.41-.84.59-1.27.59-1.43 1.24-2.84 1.7-4.32a14.81 14.81 0 0 1 .7-1.7.66.66 0 0 0-.07-.71c-.34-.5-.67-1-1-1.53a.24.24 0 0 0-.19-.06A.23.23 0 0 0 44 75a18.11 18.11 0 0 0-.54 2.2c-.14.85-.35 1.69-.55 2.53a5 5 0 0 1-.32.92.75.75 0 0 1-.31.27.23.23 0 0 1-.2 0 1 1 0 0 1-.42-.61.55.55 0 0 1 0-.31c.08-.28.16-.56.26-.83a20.43 20.43 0 0 0 1-4.76c.2-1.74.15-1.34-.6-2.64-.44-.78-.91-1.56-1.36-2.34-.14-.25-.26-.52-.42-.75s-.4-.51-.62-.78a7.28 7.28 0 0 0-1.92.18 9.85 9.85 0 0 1-2.48.14c-.32 0-.65 0-1-.08a2.8 2.8 0 0 1-1.22-.4 1 1 0 0 1-.47-.71 9 9 0 0 1-.12-1.72 1.78 1.78 0 0 1 .43-1.08 2.91 2.91 0 0 1 1.2-.91.41.41 0 0 0 .23-.44c0-.11-.05-.21-.07-.32a1.67 1.67 0 0 1 .24-1.34 1.74 1.74 0 0 0 .1-.19.58.58 0 0 0 0-.53 10.77 10.77 0 0 0-1.16-2.07 3.9 3.9 0 0 1-.36-.54 3.89 3.89 0 0 0-.65-.86 15.55 15.55 0 0 1-1.09-1.34 2.72 2.72 0 0 0-.29-.3 7.18 7.18 0 0 0-1.65.86 5.46 5.46 0 0 1-1 .52 16.48 16.48 0 0 0-1.8 1 4.69 4.69 0 0 1-2.05.61 1.52 1.52 0 0 1-1.54-.8 1.15 1.15 0 0 1-.12-.94A3.2 3.2 0 0 1 24 55.19c.18-.18.37-.34.56-.51a1.35 1.35 0 0 0 .36-.53.22.22 0 0 0-.05-.29 4.74 4.74 0 0 1-1.09-1.19 2 2 0 0 1-.3-1.65 2.39 2.39 0 0 1 .28-.7 1.51 1.51 0 0 1 .8-.69c.41-.16.79-.35 1.15-.52.22-.62.24-1.24.51-1.81a.41.41 0 0 0 0-.3c-.42-.67-.85-1.34-1.29-2-.15-.25-.33-.48-.47-.73-.23-.41-.49-.79-.74-1.19a15.87 15.87 0 0 1-.83-1.52c-.06-.12-.12-.26-.17-.39a.68.68 0 0 0-.55-.47c-.63-.14-1.26-.31-1.89-.42A5.26 5.26 0 0 1 19 39.89a2 2 0 0 0-.4-.16 5.3 5.3 0 0 1-2.49-2 1.2 1.2 0 0 1-.33-1 1.78 1.78 0 0 1 .7-1.18 1.69 1.69 0 0 1 .89-.35 1.43 1.43 0 0 0 .42-.1.4.4 0 0 0 .3-.29 11.28 11.28 0 0 1 1-2.31c-.17-.45-.32-.93-.51-1.39a8.78 8.78 0 0 1-.63-2.18 1.91 1.91 0 0 0-.11-.41 9 9 0 0 1-.64-2.84.6.6 0 0 0-.55-.57 4.87 4.87 0 0 0-.54 0 9 9 0 0 1-1.93-.23 21.39 21.39 0 0 1-2.47-.77 2 2 0 0 1-1.12-1c-.1-.2-.19-.4-.3-.58a1.19 1.19 0 0 1-.06-1 .79.79 0 0 1 .31-.43 8.36 8.36 0 0 0 1.07-.9 1 1 0 0 0 .34-.86 2.47 2.47 0 0 1 .05-.54 1.24 1.24 0 0 1 .74-1 2.27 2.27 0 0 1 1.13-.29 4.94 4.94 0 0 1 1.38.19c.21.06.46-.22.37-.4a3.42 3.42 0 0 1-.21-1.48 10.87 10.87 0 0 0-.14-1.51c-.08-.42-.08-.86-.13-1.29A8.11 8.11 0 0 0 15 11.63a4.35 4.35 0 0 1-.13-1.39.38.38 0 0 0-.29-.4 2.67 2.67 0 0 0-.62-.15c-.29 0-.58 0-.87-.06a3.84 3.84 0 0 1-1.73-.56A1.64 1.64 0 0 0 11 8.91 5.29 5.29 0 0 1 8.83 7a3.07 3.07 0 0 1-.57-1.38 1.26 1.26 0 0 1 .23-1 2.24 2.24 0 0 1 .27-.34 1 1 0 0 1 .36-.22 5.86 5.86 0 0 1 2.35-.23.21.21 0 0 0 .1 0 .15.15 0 0 0 .1-.17 6.14 6.14 0 0 0-.08-.75c-.17-.79-.1-.7.22-1.45a3 3 0 0 1 1-1.22A1 1 0 0 1 13.78 0a10.48 10.48 0 0 1 1.7.7 2.28 2.28 0 0 1 .87.79c.22.34.43.67.66 1a.76.76 0 0 0 .26.16c.32-.27.64-.51.92-.78a.79.79 0 0 1 .69-.23 2.34 2.34 0 0 1 .53.08 1.08 1.08 0 0 1 .81.79 3.48 3.48 0 0 1-.08 2.23 5.39 5.39 0 0 1-.6 1.14 11 11 0 0 1-2.22 2.5l-.24.22c-.2.21-.37.44-.59.63a7.28 7.28 0 0 1-.74.48 2.84 2.84 0 0 0 .09.42 9 9 0 0 1 .31 2.13 16.27 16.27 0 0 0 .36 2.78 3 3 0 0 0 .19.43.4.4 0 0 0 .46 0 1.51 1.51 0 0 1 1-.05 2.83 2.83 0 0 1 1.76 1.16 2.27 2.27 0 0 0 .47.7s.09 0 .12 0 .15-.14.23-.21a1.86 1.86 0 0 1 2.86.52 1.54 1.54 0 0 1 .18 1.05 7.63 7.63 0 0 1-.25 1.05A4.55 4.55 0 0 1 21.93 22c-.84.68-1.7 1.34-2.55 2a6 6 0 0 0-1.12 1 6.45 6.45 0 0 0 .28 1.81c.1.46.24.91.36 1.36a6.05 6.05 0 0 1 .2.73 20.91 20.91 0 0 0 .83 2.69.35.35 0 0 0 .42.25 2.74 2.74 0 0 1 1.17.15 2.08 2.08 0 0 1 1.3.9.57.57 0 0 0 .41.33.67.67 0 0 0 .7-.12 1.32 1.32 0 0 1 .44-.3 1.71 1.71 0 0 1 2.15.49A2.53 2.53 0 0 1 27 35.73a4.13 4.13 0 0 1-.52 1.18c-.28.41-.47.89-.77 1.3A6.58 6.58 0 0 1 24 40l-.29.15a.29.29 0 0 0-.09.37 5.26 5.26 0 0 1 .38.65 19.66 19.66 0 0 0 2.08 3.65c.23.33.42.68.65 1s.39.52.58.78a.57.57 0 0 0 .45.27 2.92 2.92 0 0 1 1.3.5 4.57 4.57 0 0 0 .95.45c.24-.15.45-.28.65-.43A4.51 4.51 0 0 0 31 47c.31-.29.62-.59.95-.87a.78.78 0 0 1 .38-.2.67.67 0 0 1 .42 0A2.71 2.71 0 0 1 34 47.08a.51.51 0 0 1 .06.21 6.93 6.93 0 0 1 .05 1.93 7.22 7.22 0 0 1-1 3.18 5.19 5.19 0 0 1-.8 1.41 1.29 1.29 0 0 0-.18.5.4.4 0 0 0 .06.41c.6.67 1.06 1.46 1.7 2.1a3.25 3.25 0 0 1 .37.52c.37.58.72 1.17 1.1 1.74a5.66 5.66 0 0 0 .54.67.3.3 0 0 0 .2.06 2.83 2.83 0 0 0 .41-.14 2 2 0 0 1 1.66.21 3.79 3.79 0 0 1 .35.25c.54.35.66.32 1.06-.21a2.38 2.38 0 0 0 .33-.68.59.59 0 0 1 .47-.4 3.72 3.72 0 0 1 .74-.14 1.43 1.43 0 0 1 1.31.61c.21.3.4.6.6.89a6 6 0 0 1 0 1.84 7 7 0 0 1-.31 1.26c-.33 1.14-.85 2.22-1.26 3.34a3.68 3.68 0 0 1-.28.45.36.36 0 0 0 0 .3 5.83 5.83 0 0 0 .53 1.06c.37.53.79 1 1.12 1.58a.23.23 0 0 0 .18.09.2.2 0 0 0 .16-.12 1.46 1.46 0 0 0 .11-.41c0-.29 0-.58 0-.86 0-1.16.09-2.31.13-3.46 0-.22 0-.44 0-.65a7 7 0 0 1 0-1.94 1.64 1.64 0 0 0 0-.54 24.83 24.83 0 0 1 0-2.59c0-1 0-2.09-.09-3.14a7.28 7.28 0 0 0-.35-1.73 3.48 3.48 0 0 0-.52-.48c-.21-.13-.47-.16-.69-.28s-.31-.33-.5-.4a16.52 16.52 0 0 0-1.87-.85 1.3 1.3 0 0 1-.3-.13 3.23 3.23 0 0 1-.76-.4 6.6 6.6 0 0 1-.75-.91.4.4 0 0 1 0-.41 1.32 1.32 0 0 1 .25-.47 4.3 4.3 0 0 1 .69-.52.86.86 0 0 1 .42-.09 3.56 3.56 0 0 1 2.5.83c.22.18.43.39.66.56s.32.5.6.35.07-.46.09-.7a2.51 2.51 0 0 0-.2-1.38 2.23 2.23 0 0 1-.15-.63c-.11-.49-.23-1-.34-1.46a2.38 2.38 0 0 0-1.08-.5 4.23 4.23 0 0 0-1.5-.17 13.18 13.18 0 0 0-1.39.17 1.53 1.53 0 0 1-.64 0l-.73-.2a1.56 1.56 0 0 1-.74-.44c-.17-.18-.37-.34-.53-.54a.77.77 0 0 1-.14-.81 4.23 4.23 0 0 1 .23-.48.54.54 0 0 1 .22-.23 7.66 7.66 0 0 1 1-.37 4.12 4.12 0 0 1 .86-.09 1.57 1.57 0 0 1 .53.06 10 10 0 0 1 2.93 1.09 1.32 1.32 0 0 0 .3.08 1.16 1.16 0 0 0 0-.76c-.12-.67-.25-1.35-.4-2a2.79 2.79 0 0 0-.22-.61.61.61 0 0 0-.18-.26c-.5-.28-.81-.83-1.37-1a7.94 7.94 0 0 0-2.52-1c-.42-.11-.84-.23-1.26-.31A2.85 2.85 0 0 1 34 37.85a1 1 0 0 1 .34-1.46 3 3 0 0 1 2.21-.2 5.27 5.27 0 0 1 2 1c.33.27.68.52 1 .78a.28.28 0 0 0 .18 0s.05-.07 0-.1c-.22-.94-.43-1.89-.67-2.83-.14-.52-.33-1-.5-1.54a1.54 1.54 0 0 0-1-1 1.19 1.19 0 0 1-.2-.08 2.91 2.91 0 0 0-2.31-.19 2.77 2.77 0 0 0-.41.12 1.28 1.28 0 0 1-1 0 .45.45 0 0 0-.21-.06c-.58.1-1-.26-1.53-.46A2 2 0 0 1 31 31c-.17-.23-.43-.42-.37-.75a1.57 1.57 0 0 1 .64-1.09 2.39 2.39 0 0 1 1.21-.4 3.5 3.5 0 0 1 .65 0 9 9 0 0 1 1.06.22 5.18 5.18 0 0 1 1.31.49c.46.27 1 .49 1.44.74.22.11.34.12.39 0s0-.28 0-.41A4.4 4.4 0 0 0 37 29a11.74 11.74 0 0 1-1-2.17c-.05-.13-.1-.27-.14-.4a1 1 0 0 0-1-.73c-.69 0-1.37-.12-2-.21l-.53-.07a5.08 5.08 0 0 1-1.86-.56 2.75 2.75 0 0 0-.59-.25 2.41 2.41 0 0 1-1.4-1.12.66.66 0 0 1-.07-.42 1.52 1.52 0 0 1 .7-1 1 1 0 0 1 .62-.17 23.39 23.39 0 0 1 2.36.29c.24.06.48.15.72.23l.92.32c.11 0 .21-.06.18-.19-.09-.38-.12-.78-.25-1.16a1.66 1.66 0 0 0-.34-.66.87.87 0 0 1-.2-.38c-.14-.71-.59-1.31-.77-2a2.74 2.74 0 0 0-.52-.94 20.08 20.08 0 0 1-1.75-3.1 2.43 2.43 0 0 1-.21-1.15A.89.89 0 0 1 30 12.8a2.46 2.46 0 0 1 .17-.27c.35-.7.83-.78 1.55-.59A1.92 1.92 0 0 1 33 13.15 11.7 11.7 0 0 1 33.62 15 12.91 12.91 0 0 1 34 17.53a6.12 6.12 0 0 0 .35 1.8 1.94 1.94 0 0 1 .14 1 3.15 3.15 0 0 0 .4 1.87 7.2 7.2 0 0 0 1 1.68.84.84 0 0 0 .19.09.13.13 0 0 0 .08 0 .2.2 0 0 0 .07-.09 16.19 16.19 0 0 1 .84-2.33 10.58 10.58 0 0 1 1-1.77c.05-.09.15-.16.2-.25a2.75 2.75 0 0 1 2-1.25 1.64 1.64 0 0 1 .22 0 1.16 1.16 0 0 1 1.26 1.38 1.66 1.66 0 0 1-.27.81 7.81 7.81 0 0 1-.75 1.06 32.55 32.55 0 0 0-2.44 3.17 3.3 3.3 0 0 0-.47 1c-.13.41-.34.79-.56 1.3 0 .07.1.22.18.38.16.36.31.73.45 1.1.2.54.48 1 .73 1.56l.08.08A.12.12 0 0 0 39 30a.79.79 0 0 0 .19-.25 19.13 19.13 0 0 0 1-2.26 7.92 7.92 0 0 1 .37-.78A2.06 2.06 0 0 1 41.1 26c.33-.29.64-.59 1-.87a1.17 1.17 0 0 1 .47-.24 1.22 1.22 0 0 1 1.65 1A1.46 1.46 0 0 1 44 27.1a5.6 5.6 0 0 1-.77 1 6.64 6.64 0 0 0-.85 1 3.16 3.16 0 0 1-.56.65 12.18 12.18 0 0 0-2 2.94c-.09.15 0 .27 0 .41a1 1 0 0 0 .32.42.26.26 0 0 1 0 .38.54.54 0 0 0-.12.51c.34.91.52 1.87.94 2.76a.18.18 0 0 0 .27 0 2 2 0 0 0 .18-.26c.21-.42.41-.85.61-1.27.12-.26.22-.53.34-.8A5.23 5.23 0 0 1 44.17 33a1.21 1.21 0 0 1 .9-.3c.14 0 .29 0 .43 0a.82.82 0 0 1 .79 1 3.52 3.52 0 0 1-.25.71 6.37 6.37 0 0 1-.35.55 8.84 8.84 0 0 1-2.16 2.24c-.17.13-.34.28-.52.4a2.34 2.34 0 0 0-1.18 1.94 1.85 1.85 0 0 0 .06 1.27c.24.94.52 1.87.78 2.81 0 .17.08.35.13.53 0 0 .05.05.07.05s.16 0 .19-.06a2.66 2.66 0 0 0 .29-.45c.19-.39.38-.78.54-1.18a3.52 3.52 0 0 1 .79-1.15 12.07 12.07 0 0 1 2-1.61 1.6 1.6 0 0 1 .3-.13.68.68 0 0 1 .52.07 1.21 1.21 0 0 1 .58.62.73.73 0 0 1 .07.41 4.11 4.11 0 0 1-.67 1.58c-.07.09-.13.2-.22.24-.37.17-.59.54-.93.73a18.15 18.15 0 0 0-1.92 1.56 3.77 3.77 0 0 0-1 1.38.6.6 0 0 0 0 .71.6.6 0 0 1 .14.51 1 1 0 0 0 0 .43c.26.82.21 1.71.52 2.52a.29.29 0 0 0 .32-.22 12.28 12.28 0 0 1 .89-1.73 4.65 4.65 0 0 1 1.9-1.88l.19-.09a1 1 0 0 1 1.55.89c.09 1 .07 1.07-.64 1.7s-1.22 1-1.84 1.51a8.13 8.13 0 0 0-1.38 1.37l-.3.44A1.7 1.7 0 0 0 44.54 54c0 .07.06.15 0 .21a2.61 2.61 0 0 0 0 1.49 13.12 13.12 0 0 1 .15 1.39c0 .54.07 1.08.08 1.62 0 .32-.09.64-.1 1 0 .61 0 1.22 0 1.84 0 1.48 0 2.95 0 4.43 0 .62 0 1.23 0 1.84a3 3 0 0 1 0 .43c-.15.93-.15 1.87-.27 2.8a6.66 6.66 0 0 0 0 1.18 1.3 1.3 0 0 0 .14.52 12.39 12.39 0 0 0 1.45 2.14.75.75 0 0 0 .18.13.27.27 0 0 0 .28-.08c0-.07.07-.13.1-.2a17 17 0 0 1 1-2.28c.13-.25.24-.53.36-.79a.32.32 0 0 0 0-.3l-.06-.09a4.16 4.16 0 0 1-1.27-2.1c-.24-.75-.45-1.52-.71-2.27a4.5 4.5 0 0 1-.12-1.71.87.87 0 0 1 .1-.31 2.45 2.45 0 0 1 1.33-1l.85-.13a2.66 2.66 0 0 1 .75.1.84.84 0 0 0 .42 0 4.19 4.19 0 0 1 2.2-.42l.46 0c.48-.93 1-1.84 1.42-2.74A4 4 0 0 0 51.86 59a22 22 0 0 1-2.27-2.15 3.57 3.57 0 0 1-.34-.43 2.43 2.43 0 0 1-.42-2.15 1.28 1.28 0 0 1 .24-.48 3.79 3.79 0 0 1 .53-.53A1.19 1.19 0 0 1 50.82 53a8.44 8.44 0 0 0 1.59.31 1 1 0 0 0 .23 0c.26-.22.34-.61.65-.82a1.54 1.54 0 0 1 .56-.31 3.13 3.13 0 0 0 .52-.16c.73-.26.77-.27.93-1a14.77 14.77 0 0 1 .52-2 .41.41 0 0 0-.09-.41 8.9 8.9 0 0 0-.7-.67c-.67-.55-1.34-1.1-2-1.62a6.1 6.1 0 0 1-1.92-2.57 2.67 2.67 0 0 1-.23-1.37 1.68 1.68 0 0 1 .51-1.17 2.37 2.37 0 0 1 1.55-.66 1.13 1.13 0 0 0 1-.41c.1-.1.2-.21.29-.32a1.52 1.52 0 0 1 .72-.45l.83-.26c.41-.13.46-.3.44-.64-.08-1.12-.18-2.23-.29-3.34a4.47 4.47 0 0 0-.17-.65c-.32-.18-.62-.38-.94-.52a16.69 16.69 0 0 1-3.38-2.12A4.11 4.11 0 0 1 50 29.86a1.8 1.8 0 0 1 .38-1.81 4.51 4.51 0 0 1 .55-.52 1.82 1.82 0 0 1 1.31-.42c.39 0 .79 0 1.21 0a3.74 3.74 0 0 0 .71-.77l.6-.73c0-.06 0-.09 0-.12a22.57 22.57 0 0 0-1.06-4 6.11 6.11 0 0 0-.27-.58.4.4 0 0 0-.35-.22c-1.45-.06-2.87-.27-4.31-.41a2.38 2.38 0 0 1-.53-.11 9.09 9.09 0 0 1-2-1 1.38 1.38 0 0 1-.5-.57 3 3 0 0 1-.46-1.42.83.83 0 0 1 0-.32 7.89 7.89 0 0 1 .72-1.06 1.84 1.84 0 0 1 1.19-.46c.22 0 .43 0 .65 0 .05 0 .1-.08.16-.13-.08-.31-.18-.61-.24-.93a2.43 2.43 0 0 1 0-.54 2.8 2.8 0 0 1 .45-1.43c.26-.38.51-.78.78-1.16a1.35 1.35 0 0 1 .89-.57l.53-.1a1.71 1.71 0 0 1 1.15.2 2.69 2.69 0 0 1 .8.54 1.34 1.34 0 0 0 .64.4l.4-.17a2.07 2.07 0 0 1 1.86-.25 1.22 1.22 0 0 1 .75.39 2.63 2.63 0 0 1 .47.72l.32.69.33 0a1 1 0 0 1 .62.16 2.77 2.77 0 0 1 1.05 1.2 1 1 0 0 1 .09.74 3.16 3.16 0 0 0-.13.53 3.48 3.48 0 0 1-1.37 2.25c-.34.28-.66.56-1 .85a7.84 7.84 0 0 1-1.2.93c-.12.07-.24.16-.35.24a.43.43 0 0 0-.2.56c.1.3.22.61.31.92.16.59.32 1.18.46 1.78.18.8.34 1.61.51 2.43.34.23.68.43 1 .67s.61.51 1 .74c.35-.19.68-.4 1-.58a1.88 1.88 0 0 1 2.27.42A2.66 2.66 0 0 1 62 29.27a5.2 5.2 0 0 1-.7 1.8 2 2 0 0 1-.44.48c-.71.6-1.42 1.21-2.15 1.8a11.11 11.11 0 0 0-1.46 1.45.58.58 0 0 0-.17.49 19.92 19.92 0 0 1 .18 3.78c0 .14 0 .29 0 .43a.93.93 0 0 0 .51.66.37.37 0 0 0 .21 0L59 40a1 1 0 0 1 .72.17 4.39 4.39 0 0 1 1 .93 1.35 1.35 0 0 1 .34.78 3.1 3.1 0 0 0 .08.42l.84.26a1 1 0 0 1 .66.67 4.32 4.32 0 0 1 .24.94 2.09 2.09 0 0 1-.66 1.86 5.31 5.31 0 0 1-1.84 1.3c-.5.19-1 .42-1.51.57s-1.1.35-1.64.54a.7.7 0 0 0-.5.52c-.09.42-.2.84-.27 1.27-.1.6-.18 1.21-.28 1.86a1.28 1.28 0 0 0 .14.23 8.06 8.06 0 0 1 .73.93 6.58 6.58 0 0 1 .39 1.16l1.51.49a2.06 2.06 0 0 1 .82.51A1.58 1.58 0 0 1 60.26 57a5.35 5.35 0 0 1-.4 1 2.7 2.7 0 0 1-1.26 1.15 8.23 8.23 0 0 1-2.21.85 5.28 5.28 0 0 0-2 .89 1.24 1.24 0 0 0-.43.48c-.41.76-.82 1.52-1.24 2.28a.77.77 0 0 0 0 .72c.14.3.27.6.4.89a.34.34 0 0 0 .37.16c.21 0 .42-.13.63-.16a.84.84 0 0 1 .86.33 2.6 2.6 0 0 1 .51 1.18 1.37 1.37 0 0 1-.05.53 4 4 0 0 1-.7 1.34 2.8 2.8 0 0 1-.46.45 7.57 7.57 0 0 1-2.74 1.24l-1.68.4-.31.11a1 1 0 0 0-.65.67c-.21.61-.45 1.22-.62 1.84a18.76 18.76 0 0 1-1 2.75 1.41 1.41 0 0 0 .05 1.43 15.8 15.8 0 0 1 .86 1.63c.3.65.57 1.32.85 2 .07.16.15.32.23.49s.24.09.29 0a1.12 1.12 0 0 0 .23-.35 3 3 0 0 0 0-1.71 4.4 4.4 0 0 1-.13-.63c-.06-.32-.1-.64-.16-1a1.8 1.8 0 0 0-.3-.68 2.72 2.72 0 0 1-.38-2.17 1.9 1.9 0 0 1 1-1.21.7.7 0 0 1 .53 0 4.11 4.11 0 0 1 .86.44 1.52 1.52 0 0 1 .64.85 3.49 3.49 0 0 1 .2 1.16c0 .69 0 1.37 0 2.06 0 0 0 0 .07 0a.18.18 0 0 0 .1 0 1.48 1.48 0 0 0 .31-.3 5.66 5.66 0 0 1 1-1.12 2.18 2.18 0 0 0 .75-1.51c0-.32.07-.65.05-1a10 10 0 0 0-.46-2.54 2.36 2.36 0 0 1-.07-1.18 1.67 1.67 0 0 1 1.32-1.41.69.69 0 0 1 .61.14 1.35 1.35 0 0 1 .53.91 8.14 8.14 0 0 1 .22 2.15c0 .35 0 .71 0 1.07 0 .05.08.11.13.15a.17.17 0 0 0 .1 0 9.3 9.3 0 0 0 2-1.6 1.54 1.54 0 0 0 .4-1 1.48 1.48 0 0 0 0-.21 21.35 21.35 0 0 0-.38-2.89A8.59 8.59 0 0 1 58.52 66a.65.65 0 0 1 .08-.31 2.23 2.23 0 0 1 1.22-1 .76.76 0 0 1 .72.14 3.14 3.14 0 0 1 1 1.49 4.06 4.06 0 0 1 .18 1.39c0 .5-.1 1-.14 1.5a1.55 1.55 0 0 0 0 .43.21.21 0 0 0 .17.07.39.39 0 0 0 .2-.08 11.79 11.79 0 0 0 1.48-1.25.79.79 0 0 0 .26-.58c0-.32 0-.65 0-1a5.05 5.05 0 0 0-.54-2.62 4.37 4.37 0 0 1-.45-1.66 2.94 2.94 0 0 1 .6-2.13.7.7 0 0 1 .67-.27 1.21 1.21 0 0 1 .85.43 3.44 3.44 0 0 1 .93 2 11.64 11.64 0 0 1-.08 3.23 1.13 1.13 0 0 0 0 .32s0 .09 0 .09a.37.37 0 0 0 .21 0 .48.48 0 0 0 .16-.13l2.09-2a.84.84 0 0 0 .26-.79 10.14 10.14 0 0 0-.36-1.79c-.25-.75-.42-1.53-.65-2.29a3.46 3.46 0 0 1-.08-1.5 1.29 1.29 0 0 1 .38-.76 5.47 5.47 0 0 1 .56-.51.71.71 0 0 1 .81 0 3.21 3.21 0 0 1 1.44 2.19 8.71 8.71 0 0 1 .11 2.16.18.18 0 0 0 .11.14.23.23 0 0 0 .2 0 8.41 8.41 0 0 0 1.22-1.51.5.5 0 0 0 .08-.2 12.35 12.35 0 0 1 .34-1.46 14.41 14.41 0 0 0 .24-1.82A11.18 11.18 0 0 0 72.69 54a2.28 2.28 0 0 1 .08-1.07 4.86 4.86 0 0 0 .19-.84.84.84 0 0 1 .69-.74c.24-.07.48-.15.72-.21a.68.68 0 0 1 .61.16 1.51 1.51 0 0 1 .58.88 3.75 3.75 0 0 1 .08 1.29 5 5 0 0 1-.08.54 18.35 18.35 0 0 1-1.12 3.38c-.21.45-.45.89-.62 1.37a6.06 6.06 0 0 1-.94 1.58c-.4.55-.79 1.11-1.18 1.68a1.3 1.3 0 0 0-.17.38.22.22 0 0 0 .1.17 1.6 1.6 0 0 0 .83-.15l1-.38a7 7 0 0 0 .8-.32A7.6 7.6 0 0 1 76 61.09a.81.81 0 0 1 .72.11 5.14 5.14 0 0 1 .68.53 1.32 1.32 0 0 1-.06 2 3.64 3.64 0 0 1-2.65 1c-.87 0-1.74 0-2.6 0a4.62 4.62 0 0 0-1.39.19 4.08 4.08 0 0 0-1.6.62.54.54 0 0 1-.39.13c-.49-.15-.74.17-1 .45l-1.46 1.43a.52.52 0 0 0 .47.25 1.13 1.13 0 0 0 .31-.06c.15 0 .28-.08.42-.1 1-.12 2-.31 3-.46a3.72 3.72 0 0 1 1.81.19 1.58 1.58 0 0 1 1 1.82 1.25 1.25 0 0 1-.18.39 1.79 1.79 0 0 1-2.33.79c-.48-.18-1-.3-1.45-.44a7.8 7.8 0 0 0-1.92-.27c-.5 0-1-.09-1.5-.11s-1.23 0-1.84 0a.7.7 0 0 0-.39.15c-.85.68-1.68 1.37-2.51 2.07a.48.48 0 0 0-.07.18c0 .08.1.16.24.16h.11a14.1 14.1 0 0 0 1.94-.16 12.1 12.1 0 0 1 2.48-.12 2.28 2.28 0 0 1 1.8 1.05 1.71 1.71 0 0 1-.08 1.84 1.49 1.49 0 0 1-1.4.65 3.53 3.53 0 0 1-1-.23c-.62-.27-1.28-.49-1.91-.74-.34-.14-.65-.32-1-.47a3.22 3.22 0 0 0-1.56-.35c-.57 0-1.15 0-1.76 0a27.69 27.69 0 0 0-4 3.78s0 .13 0 .2l-.34.22c.07 0 .07 0 0 0l0 0Zm-6.34 5.59c-.17-.44-.32-.81-.46-1.18a20.89 20.89 0 0 0-1.46-3 .73.73 0 0 0-.05-.09 1.07 1.07 0 0 0-.27-.16s-.11.07-.14.13l-.72 1.69c-.44 1-.77 2.09-1.26 3.1A15.12 15.12 0 0 0 43.56 85a.6.6 0 0 0 .17.69l1.84 1.66h.18c.2-.58.76-1 1-1.63a1.29 1.29 0 0 1 .29-.45c.51-.56.86-1.24 1.33-1.83A2 2 0 0 0 48.55 83.07Zm4.08-64a2 2 0 0 0 .2-.72A4.85 4.85 0 0 1 53 17.5a3.24 3.24 0 0 0 .13-1.38c-.06-.61-.14-1.21-.25-1.81a2.62 2.62 0 0 0-.55-1.26 4 4 0 0 0-1.42-1.29.53.53 0 0 0-.61.05 3.38 3.38 0 0 0-1 1.21 2 2 0 0 0 .27 2.39c.43.48.87 1 1.31 1.43a8.16 8.16 0 0 1 1 1.27 7.7 7.7 0 0 0 .63.87C52.46 19 52.55 19 52.63 19.07ZM16.52 4.72c0-.21 0-.43 0-.64a3 3 0 0 0-.07-.43 1.94 1.94 0 0 0-.25-.59A4.66 4.66 0 0 0 13.9 1.29a1 1 0 0 0-1.12.42c-.08.12-.13.25-.21.38a1.09 1.09 0 0 0 0 1.13 5.93 5.93 0 0 1 .24.71 5.38 5.38 0 0 0 .37.89c.32.53.58 1.08.87 1.62s.61 1.22.93 1.82c0 .08.16.13.25.17a.4.4 0 0 0 .37-.18 2.68 2.68 0 0 0 .12-.3 12.56 12.56 0 0 1 .5-1.54A3.74 3.74 0 0 0 16.52 4.72Zm20.53 56.1a2.71 2.71 0 0 0-1.21.94 1.08 1.08 0 0 0-.07 1.31c.1.15.26.27.25.46a1.06 1.06 0 0 0 .38.75c.2.21.41.41.59.63a2.47 2.47 0 0 0 .88.62l2.09.89c.06 0 .23-.1.23-.18a5.3 5.3 0 0 0-.36-2c-.14-.33-.29-.66-.41-1a5 5 0 0 0-1.42-2 1 1 0 0 0-.36-.22ZM22.54 37.73h0a11.67 11.67 0 0 0-.07-1.18 7.45 7.45 0 0 1-.09-1.06c0-.25 0-.5-.07-.75a1.44 1.44 0 0 0-.38-.87 6.76 6.76 0 0 0-.55-.52.77.77 0 0 0-1-.1 1.37 1.37 0 0 0-.66.68 2.16 2.16 0 0 0-.23 2 1.65 1.65 0 0 0 .51.92l1.5 1.39c.21.2.39.42.6.62a.21.21 0 0 0 .19 0 .24.24 0 0 0 .14-.14C22.51 38.38 22.52 38.05 22.54 37.73Zm7.72 15.43a.28.28 0 0 0 .25-.31 17 17 0 0 0-.42-2.55c-.06-.2-.11-.41-.18-.62a1.48 1.48 0 0 0-.58-.76c-.42-.26-.88-.47-1.33-.7-.85-.15-1.2.09-1.27.86a.17.17 0 0 0 0 .1c.07.43.11.86.21 1.28a1.49 1.49 0 0 0 .45.72c.3.26.58.54.88.79s.52.38.78.57A3.36 3.36 0 0 1 30.26 53.16ZM13.57 8.66h.11A.3.3 0 0 0 14 8.38a2 2 0 0 0-.15-.94 8.36 8.36 0 0 0-1.22-2 .86.86 0 0 0-.33-.27c-1.19-.47-1.14-.54-2.28-.23L9.57 5a.56.56 0 0 0-.39.47 1 1 0 0 0 .23.91A5 5 0 0 0 11 7.72a1.39 1.39 0 0 1 .37.22A4.67 4.67 0 0 0 13.57 8.66ZM16.65 19.6a8.08 8.08 0 0 0 .08.86c.13.68.27 1.35.44 2a2.79 2.79 0 0 0 .29.57l.07.08a.17.17 0 0 0 .27 0c.29-.66.56-1.33.85-2a5.84 5.84 0 0 0 .43-3.17 2 2 0 0 0-.45-1 .55.55 0 0 0-.28-.15 3 3 0 0 0-.43-.06.63.63 0 0 0-.55.28 3.14 3.14 0 0 0-.28.46A4.25 4.25 0 0 0 16.65 19.6ZM56.2 55.17a3.07 3.07 0 0 0-.39-1.54.78.78 0 0 0-.39-.35 1.23 1.23 0 0 0-1.45.36 2.09 2.09 0 0 0-.5 1.06 5.84 5.84 0 0 0-.09 1.39c.06.61.17 1.2.28 1.8 0 .24 0 .57.25.66s.37-.26.52-.43l1.18-1.26a1.06 1.06 0 0 0 .26-.34A2.87 2.87 0 0 0 56.2 55.17Zm1-25.56c0-.27-.08-.52-.09-.77a2.25 2.25 0 0 0-.76-1.5A1.13 1.13 0 0 0 55.25 27a.66.66 0 0 0-.37.19 2 2 0 0 0-.56 2 2.7 2.7 0 0 0 .32.9c.53.72 1 1.46 1.56 2.18 0 .07.26.07.28 0a8.54 8.54 0 0 0 .41-1.1C57 30.65 57.09 30.12 57.18 29.61ZM6.67 44.71c-.12-.73-.09-1.53-.28-2.3A1.93 1.93 0 0 0 6 41.52a.65.65 0 0 1-.14-.29 1.77 1.77 0 0 0-1-1.32c-.77-.44-1.13-.53-1.55.53a2.62 2.62 0 0 0-.19.62 1.17 1.17 0 0 0 .2.92 5.67 5.67 0 0 0 1.34 1.38 5.42 5.42 0 0 1 1.14 1 3 3 0 0 0 .57.48.34.34 0 0 0 .2 0S6.62 44.79 6.67 44.71ZM51.12 19.45h.2a.22.22 0 0 0 .18-.32 2.49 2.49 0 0 0-.15-.28 7.69 7.69 0 0 0-1.22-1.51c-.37-.34-.69-.74-1.05-1.09a.49.49 0 0 0-.49-.15 5.59 5.59 0 0 1-1.14.28 1.28 1.28 0 0 0-.92.7.75.75 0 0 0-.09.41 1.21 1.21 0 0 0 .56.89 7.56 7.56 0 0 0 1.55.72C49.43 19.34 50.33 19.3 51.12 19.45ZM18.64 69.91l2.24-.17.1 0 .1 0s.07 0 .07-.06a.42.42 0 0 0 0-.2 1.53 1.53 0 0 0-.72-.44 6.41 6.41 0 0 1-3-2c-.11-.14-.2-.3-.3-.44a.27.27 0 0 0-.3-.07 6.8 6.8 0 0 0-1.25 1 1.1 1.1 0 0 0-.18.26.74.74 0 0 0-.07.32 1.71 1.71 0 0 0 .67 1.3 1 1 0 0 0 .9.24 1.2 1.2 0 0 1 .75 0l.72.22Zm-7.4-11.63c.31 0 .63.11.95.15 0 0 .1-.07.14-.11a.15.15 0 0 0 0-.11 2.11 2.11 0 0 0-.64-.72c-.34-.26-.68-.52-1-.76a2.42 2.42 0 0 1-1.12-1.26.72.72 0 0 0-.11-.19A.59.59 0 0 0 8.9 55a3.88 3.88 0 0 0-1.26.26.88.88 0 0 0-.28.16.79.79 0 0 0-.32 1 3.07 3.07 0 0 0 .4.76 1.9 1.9 0 0 0 1.34.82C9.61 58 10.41 58.24 11.24 58.28Zm45-12.54a1 1 0 0 0 .2-.28c.17-.55.35-1.09.48-1.65a4.17 4.17 0 0 0-.2-2.63 1.1 1.1 0 0 0-.32-.42 2.35 2.35 0 0 0-.57-.29 1.08 1.08 0 0 0-1.27.3c-.12.13-.22.27-.33.41a2.37 2.37 0 0 1 0 .45 1.67 1.67 0 0 0 .27 1l.21.37c.46.81.92 1.62 1.3 2.47A1.46 1.46 0 0 0 56.28 45.74ZM58 31.54l-.33 1.13s0 .08 0 .1a.17.17 0 0 0 .1 0c.69-.57 1.4-1.11 2.06-1.71a2.56 2.56 0 0 0 .87-1.89c0-1 0-.95-.65-1.6a.16.16 0 0 0-.09-.07 1.47 1.47 0 0 0-.4-.14 1.81 1.81 0 0 0-.94.17.53.53 0 0 0-.34.5 8.25 8.25 0 0 0 0 .86A6.58 6.58 0 0 1 58 31.54ZM13.3 55.59a6.59 6.59 0 0 0-.25-1.6 2.52 2.52 0 0 0-.61-1.12 1.2 1.2 0 0 0-1.28-.27l-.29.14a.83.83 0 0 0-.39.49 4.37 4.37 0 0 0-.17.62A1.63 1.63 0 0 0 10.5 55a2 2 0 0 0 .63.72 7.83 7.83 0 0 1 .83.67 10.55 10.55 0 0 0 .89.59.2.2 0 0 0 .26-.12C13.17 56.43 13.23 56 13.3 55.59ZM21 68.05a.64.64 0 0 0 .06-.24c-.06-.53-.11-1.07-.21-1.6a5.8 5.8 0 0 0-.67-1.7 1.33 1.33 0 0 0-.51-.54.94.94 0 0 0-1 0 2.37 2.37 0 0 0-.73.78.74.74 0 0 0-.07.63 3.1 3.1 0 0 0 .28.58 6.82 6.82 0 0 0 1.38 1.51.74.74 0 0 0 .27.16Zm2.64-29.2c.13-.13.26-.29.41-.43a8.71 8.71 0 0 0 1.93-3 .94.94 0 0 0 0-.64c0-.1-.06-.21-.1-.31a1.07 1.07 0 0 0-1.49-.62 1.1 1.1 0 0 1-.51.12c-.37 0-.47.08-.47.38a4.87 4.87 0 0 0 0 .54c.08.72.16 1.44.25 2.15a1.85 1.85 0 0 1-.19 1.26.91.91 0 0 0-.06.41.13.13 0 0 0 0 .09S23.53 38.84 23.61 38.85Zm27 25.79v0l-.54 0a.65.65 0 0 0-.53.32A3 3 0 0 0 49 66.08c-.15.74-.28 1.48-.37 2.23a3 3 0 0 0 0 .42 1.58 1.58 0 0 0 .09.31.2.2 0 0 0 .26.09 7.66 7.66 0 0 0 1.21-1.06 6.23 6.23 0 0 0 1.16-1.54 2.06 2.06 0 0 0 .26-1.24.72.72 0 0 0-.73-.65C50.79 64.65 50.68 64.64 50.57 64.64ZM31.51 53c.13 0 .28-.05.3-.11.22-.45.41-.92.63-1.37a7.36 7.36 0 0 0 .55-2.4c0-.14 0-.28 0-.43a3.69 3.69 0 0 0-.31-1.35.54.54 0 0 0-.71-.29 1.05 1.05 0 0 0-.65.53 1.08 1.08 0 0 1-.5.53.39.39 0 0 0-.15.56 4.61 4.61 0 0 1 .36.89 10 10 0 0 1 .44 2.76C31.48 52.55 31.5 52.76 31.51 53ZM13 19.5a2.13 2.13 0 0 0 .92 1.85 2.25 2.25 0 0 1 .59.45 4.64 4.64 0 0 0 1.7 1.28c.07 0 .23-.06.24-.15a1.7 1.7 0 0 0-.16-.94 14.94 14.94 0 0 1-.69-2.15c0-.14-.09-.28-.14-.41a.9.9 0 0 0-.43-.47 2 2 0 0 0-1.14-.25 1.14 1.14 0 0 0-.67.32A.59.59 0 0 0 13 19.5Zm13.14 35a2.58 2.58 0 0 1-.42.27 3.56 3.56 0 0 0-1.54 1.46.56.56 0 0 0-.09.31.86.86 0 0 0 .78.75A6.43 6.43 0 0 0 27 56.59 22.53 22.53 0 0 0 29 55.42s.07 0 .08-.07a.39.39 0 0 0 .05-.2A.22.22 0 0 0 29 55a11.09 11.09 0 0 1-2.22-.38A5.51 5.51 0 0 0 26.16 54.51Zm6.52 23.66a1.48 1.48 0 0 0-.14-.45c-.32-.6-.65-1.19-1-1.77a5.4 5.4 0 0 0-.62-.74 3.23 3.23 0 0 0-1-.68.47.47 0 0 0-.31 0 1.09 1.09 0 0 0-.7 1.46 2.27 2.27 0 0 0 .57.77 12.7 12.7 0 0 0 2.1 1.49 5.12 5.12 0 0 0 .79.35C32.51 78.62 32.7 78.47 32.68 78.17ZM28.16 53.83c.19 0 .44-.07.68-.13.05 0 .09-.09.11-.15a.13.13 0 0 0 0-.1 1.64 1.64 0 0 0-.32-.27A13 13 0 0 1 27.17 52 5.31 5.31 0 0 1 26 50.64a2.21 2.21 0 0 0-.23-.36.26.26 0 0 0-.19-.05 1.74 1.74 0 0 0-1 .87 1.18 1.18 0 0 0 .36 1.61l.41.35a1.38 1.38 0 0 0 .38.2c.51.15 1 .26 1.53.44A5.68 5.68 0 0 0 28.16 53.83ZM35.22 76.3a4.38 4.38 0 0 0 0-.52A1.94 1.94 0 0 0 35 75a1 1 0 0 0-1.2-.42 2 2 0 0 0-.94.68.48.48 0 0 0-.07.5 2.55 2.55 0 0 0 .13.29 8.27 8.27 0 0 1 .84 2.2 9.17 9.17 0 0 0 .37 1.12s.1.09.15.13.17 0 .23-.17l.42-1.1A4.39 4.39 0 0 0 35.22 76.3Zm-8.08 5.38c.08.23.16.43.22.63a1.45 1.45 0 0 0 .56.77 1.12 1.12 0 0 0 1.21.13 2.41 2.41 0 0 0 1-.8 3.34 3.34 0 0 1 .35-.4c.32-.34.65-.67 1-1 0 0 0-.13 0-.2s-.06 0-.09 0l-1 .06a4.71 4.71 0 0 1-.75 0 4.86 4.86 0 0 1-1.35-.29c-.23-.12-.41 0-.58.14A1.88 1.88 0 0 0 27.14 81.68Zm-.36-4a1.45 1.45 0 0 0 1 1.29 5.24 5.24 0 0 0 .48.23c.45.13.9.23 1.36.35l2.14-.21c0-.07 0-.15 0-.2a.29.29 0 0 0-.15-.14 10.07 10.07 0 0 1-1.79-1 1.73 1.73 0 0 0-.39-.18A2.58 2.58 0 0 1 28.24 77a.42.42 0 0 0-.28-.14 4.87 4.87 0 0 0-.54 0 .47.47 0 0 0-.41.3C26.92 77.36 26.84 77.56 26.78 77.72ZM36.29 67l1.81-.14.1 0c.08 0 .13-.07.11-.15s-.05-.17-.09-.17a6.31 6.31 0 0 1-1.59-.64 2 2 0 0 1-.64-.55 13.25 13.25 0 0 1-.9-1.19.33.33 0 0 0-.29-.08 6.1 6.1 0 0 0-.54.34 1.17 1.17 0 0 0-.39.51 2.87 2.87 0 0 0-.22 1.36.5.5 0 0 0 .31.41A8.9 8.9 0 0 0 36.29 67Zm17-38.23a1.45 1.45 0 0 0 0-.22c0-.31-.14-.45-.44-.45a2.79 2.79 0 0 0-1 .33.46.46 0 0 0-.15.16 6.16 6.16 0 0 0-.33.55.49.49 0 0 0 0 .41 2.53 2.53 0 0 0 1 1.49c.58.43 1.16.85 1.76 1.25a2.78 2.78 0 0 0 .59.23c.12 0 .29 0 .28-.07a.61.61 0 0 0-.08-.3 2.71 2.71 0 0 0-.35-.4 5.51 5.51 0 0 1-1-1.53A3.49 3.49 0 0 1 53.25 28.77Zm-33.58-7c0-.11 0-.07 0 0a.17.17 0 0 0 0 .2s.17 0 .28-.06a3.07 3.07 0 0 1 .6-.44A3.68 3.68 0 0 0 22.12 20a2 2 0 0 0 .33-1.63.7.7 0 0 0-.13-.29 1.14 1.14 0 0 0-.75-.38 1.51 1.51 0 0 0-1.06.45c-.18.16-.14.4-.15.61 0 0 0 .07 0 .1a5.59 5.59 0 0 1-.57 2.38A2 2 0 0 0 19.67 21.78ZM2.2 48a5.2 5.2 0 0 0 .55-.08c.39-.1.77-.21 1.15-.33a17.6 17.6 0 0 1 2.61-.7.21.21 0 0 0 .21-.2c0-.12 0-.21-.18-.22a3.81 3.81 0 0 0-1.17-.05 1.94 1.94 0 0 1-.86 0c-.84-.2-1.73-.15-2.56-.4a.57.57 0 0 0-.54.29 4.49 4.49 0 0 0-.23.61A.84.84 0 0 0 1.9 48ZM39.78 61.29l.16.37a16.14 16.14 0 0 1 1 2.49 2.63 2.63 0 0 0 .09.3.21.21 0 0 0 .15.11.28.28 0 0 0 .18-.09 1 1 0 0 0 .27-.57 3.19 3.19 0 0 1 .1-.63A6.55 6.55 0 0 0 42 60.94a1.16 1.16 0 0 0-.5-.9.53.53 0 0 0-.29-.12 2.32 2.32 0 0 0-.53 0 .64.64 0 0 0-.48.39C40 60.66 39.92 61 39.78 61.29Zm-30.35-20a1.3 1.3 0 0 0-.49-1.24.75.75 0 0 0-.88-.18 3.07 3.07 0 0 1-.61.18.35.35 0 0 0-.33.53A6.58 6.58 0 0 1 7.64 43c0 .24 0 .49.06.74a1.82 1.82 0 0 0 .11.3c0 .08.12.11.18 0A5 5 0 0 0 8.94 43 3.11 3.11 0 0 0 9.43 41.33ZM57.62 55.59c-.22.14-.22.34-.28.5a5.23 5.23 0 0 1-1.78 2.39 1 1 0 0 0-.23.23.59.59 0 0 0-.07.2.12.12 0 0 0 .11.16 4.94 4.94 0 0 0 2.25-.66 3.7 3.7 0 0 0 1.06-.9 1.38 1.38 0 0 0 .3-1 .52.52 0 0 0-.11-.29c-.19-.27-.38-.53-.77-.52A1.71 1.71 0 0 1 57.62 55.59ZM54.23 16.47c0 .23 0 .48 0 .73 0 .09 0 .15.11.15s.08 0 .09 0A3.45 3.45 0 0 0 55.2 16a5.92 5.92 0 0 1 .27-.81 1.45 1.45 0 0 0 .12-.63 8.06 8.06 0 0 0 0-.85 2.54 2.54 0 0 0-.44-1.09.53.53 0 0 0-.26-.18 1.34 1.34 0 0 0-.84 0 .49.49 0 0 0-.33.49c.11.49.2 1 .34 1.47A6.69 6.69 0 0 1 54.23 16.47Zm-2 39a5.61 5.61 0 0 0 .08-.67.75.75 0 0 0-.41-.7 2.59 2.59 0 0 0-1.25-.24.42.42 0 0 0-.27.14c-.09.11-.14.25-.22.37A1.24 1.24 0 0 0 50.31 56a2.66 2.66 0 0 0 .53.53 7.31 7.31 0 0 1 1.15.93.82.82 0 0 0 .28.14.1.1 0 0 0 .15-.1 1.86 1.86 0 0 0 0-.53A4.83 4.83 0 0 1 52.26 55.49Zm-28.86 10a2.47 2.47 0 0 0 0-.37 1.16 1.16 0 0 0-.95-1 1.53 1.53 0 0 0-.85.06.34.34 0 0 0-.18.24.7.7 0 0 0 .05.31A9.25 9.25 0 0 1 22 67.52a4.86 4.86 0 0 0 .2 1 .19.19 0 0 0 .14.12.21.21 0 0 0 .17-.08c.23-.61.48-1.21.67-1.83A3.71 3.71 0 0 0 23.4 65.45ZM53.25 41.59a.84.84 0 0 0-1.14.65 5.34 5.34 0 0 0-.09.53.57.57 0 0 0 0 .32 4.23 4.23 0 0 0 .73 1.31A11.52 11.52 0 0 0 54.42 46c.14.11.3.2.45.3s.27.05.3 0a.49.49 0 0 0 0-.2 2.49 2.49 0 0 0-.35-.78c-.26-.35-.49-.72-.75-1.07a4 4 0 0 1-.73-1.77Q53.31 42 53.25 41.59ZM1.3 43.67l0 .22a.68.68 0 0 0 .32.53 1.91 1.91 0 0 0 .67.33c.81.18 1.64.22 2.43.47a.86.86 0 0 0 .32 0s.09 0 .09 0 0-.16 0-.2a12.47 12.47 0 0 0-2-1.66 1.57 1.57 0 0 1-.59-.61 2.32 2.32 0 0 0-.21-.38.41.41 0 0 0-.4-.11.57.57 0 0 0-.41.31A2.12 2.12 0 0 0 1.3 43.67Zm58.64-1.25a1 1 0 0 0-.24-.83 5.35 5.35 0 0 0-.55-.51 1.3 1.3 0 0 0-.38-.17.46.46 0 0 0-.62.51 1.3 1.3 0 0 0 0 .21 4.32 4.32 0 0 1 0 2.23c-.08.32-.16.63-.22 1 0 0 0 .12.08.17s.07 0 .1 0a6.62 6.62 0 0 0 .71-.46A2.87 2.87 0 0 0 59.94 42.42ZM19.13 3.7c0-.08 0-.22 0-.36a.58.58 0 0 0-.89-.44 4.89 4.89 0 0 0-.68.52.74.74 0 0 0-.27.68A6 6 0 0 1 17.13 6c0 .21-.1.42-.13.64a.19.19 0 0 0 .08.16.24.24 0 0 0 .2 0 5.94 5.94 0 0 0 1.28-1.32A2.83 2.83 0 0 0 19.13 3.7ZM57.74 47.07c.29.09.51-.09.75-.11a4.12 4.12 0 0 0 2.22-1c.22-.18.43-.37.64-.56 0 0 .12-.1.14-.16a4.86 4.86 0 0 0 .28-.81 1.45 1.45 0 0 0-.13-.84.52.52 0 0 0-.47-.2.43.43 0 0 0-.23.19 4.77 4.77 0 0 1-1.84 2.18c-.18.12-.37.22-.54.34A2.25 2.25 0 0 0 57.74 47.07Zm-37-7.78c.06 0 .15 0 .18-.08a.21.21 0 0 0 0-.19 3.19 3.19 0 0 0-.62-.6c-.61-.36-.91-1-1.43-1.46a3.67 3.67 0 0 1-.45-.72.34.34 0 0 0-.38-.15 3.52 3.52 0 0 0-.71.25.65.65 0 0 0-.19 1 4.86 4.86 0 0 0 1.39 1.15A8.77 8.77 0 0 0 20.71 39.29ZM14.18 56.48v.63c0 .08.05.12.14.12s.08 0 .09 0a5.79 5.79 0 0 0 1.3-3.25 3.43 3.43 0 0 0 0-.64.77.77 0 0 0-1-.6l-.29.13a.43.43 0 0 0-.26.43 1.64 1.64 0 0 0 .05.32 5.3 5.3 0 0 1 .12 2.24C14.21 56.11 14.19 56.39 14.18 56.48ZM51.47 69l.91-.25a3 3 0 0 0 1.55-1.11 1.08 1.08 0 0 0 0-1.31.23.23 0 0 0-.18-.11l-.53.06a.63.63 0 0 0-.5.36 6.53 6.53 0 0 1-.64 1 10.11 10.11 0 0 0-.73 1.18.12.12 0 0 0 0 .1A.44.44 0 0 0 51.47 69ZM14.22 23.54l.21 0s0-.06 0-.1 0-.08 0-.09c-.52-.5-1.07-1-1.55-1.49-.86-1-.66-.82-1.5 0l-.07.08a.43.43 0 0 0 0 .41.78.78 0 0 0 .22.36 3.35 3.35 0 0 0 .72.45A4.67 4.67 0 0 0 14.22 23.54ZM57.61 15a.88.88 0 0 0-.35-.69.3.3 0 0 0-.43.16 1.25 1.25 0 0 0 0 .32 1.73 1.73 0 0 1-.16.84 4.32 4.32 0 0 1-.9 1.69.1.1 0 0 0 0 .1 1.33 1.33 0 0 0 0 .19.16.16 0 0 0 .1 0c.33-.28.64-.57 1-.84A3 3 0 0 0 57.61 15ZM23.88 68.25c0 .08 0 .17.05.21s.14 0 .17 0c.25-.25.48-.53.74-.77a2.7 2.7 0 0 0 .56-.91 1 1 0 0 0-.17-1.11c-.05-.07-.19-.09-.29-.11s-.19.08-.24.17a1.21 1.21 0 0 0-.11.3 7.53 7.53 0 0 1-.43 1.45Zm23.53-.76s.08 0 .09-.07c.21-.76.41-1.52.62-2.28 0-.07-.09-.23-.17-.25a1.11 1.11 0 0 0-.74.07.36.36 0 0 0-.21.21 1.76 1.76 0 0 0-.12.63A3.47 3.47 0 0 0 47.41 67.49Zm21.91-9 0-.17-.07.06a1.09 1.09 0 0 0 0 .17Z" transform="matrix(0.48488911986351013, 0, 0, 0.48488911986351013, 0.0005083480500616133, -0.020148226991295815)" fill="rgba(255, 255, 255, 1)" data-uid="o_f2542hc17_6"></path></g><path text="bedrez" text-anchor="middle" font-size="100" letter-spacing="5" side="left" offset="0.5" dx="0" dy="0" space="preserve" href="" font-family="Inria Serif" font-scale="contain" transform="matrix(0.9670525789260864, 0, 0, 0.9670525789260864, 327.2138671875, 144.40902709960938)" x="0" y="0" fill="rgba(255, 255, 255, 1)" data-fl-textpath="" id="_mIo0xGw6zFKEE8_IVmY8a" font-weight="400" font-style="normal" path="M-207.60509240258233 205.43907323771487C-207.60509240258233 208.45917494896446 246.00253432251623 205.43907323771487 246.00253432251623 205.43907323771487" data-uid="o_f2542hc17_7" d="M-140.4402404141284 135.9145806801786L-145.93923260066703 135.4036159726038L-145.93384943818643 132.70362133898658L-130.03388104021843 132.7353221847057L-130.09708335526844 164.4352591793966Q-127.18851593446975 160.14104964111502 -123.4846354488324 158.19843044319822Q-119.78075496319506 156.25581124528142 -115.48076350965655 156.26438442997275L-115.48076350965655 156.26438442997275Q-106.88078060257952 156.2815307993554 -102.14374950866922 162.79098825872381Q-97.4067184147589 169.30044571809222 -97.43004545217484 181.00042246376677L-97.43004545217484 181.00042246376677L-97.43403297993824 183.0004184886684Q-97.45676188818966 194.40039583060772 -102.92010927405403 201.08951650087292Q-108.38345665991841 207.7786371711381 -118.18343718193641 207.7590982850974L-118.18343718193641 207.7590982850974Q-125.98342167905278 207.7435469268201 -130.9732435455102 202.63358824391244L-130.9732435455102 202.63358824391244Q-132.37483577404666 203.43079538443868 -133.57722590564572 204.62840048272164Q-134.77961603724472 205.82600558100455 -135.98240492162012 207.22361028177767L-135.98240492162012 207.22361028177767L-138.38240015150205 207.21882524846157L-138.2500142297569 140.81895722172732Q-138.24303605617095 137.31896417814946 -138.5418392015772 136.71836724151447Q-138.84064234698343 136.11777030487949 -140.4402404141284 135.9145806801786L-140.4402404141284 135.9145806801786ZM-116.78793847581674 159.86178538174948L-116.78793847581674 159.86178538174948Q-119.88793231441427 159.8556047137162 -123.24191318388793 161.84892162961413Q-126.59589405336156 163.84223854551203 -130.1080490566178 169.9352482478761L-130.1080490566178 169.9352482478761L-130.16507070363454 198.53519140396946Q-125.87684245699808 204.44375286212056 -118.77685656859727 204.45790858568066L-118.77685656859727 204.45790858568066Q-112.27686948766696 204.47086805091175 -109.36700612034517 199.52665980453713Q-106.45714275302336 194.58245155816255 -106.4399963836407 185.9824686510855L-106.4399963836407 185.9824686510855L-106.42404627258708 177.98248455147896Q-106.40530489209907 168.58250323444128 -109.09662665283086 164.22712871779964Q-111.78794841356266 159.87175420115798 -116.78793847581674 159.86178538174948ZM-45.09763688048953 193.84231650540988L-39.7957624621119 195.33567769807323Q-41.58724484469756 202.13792665506426 -46.53373428977338 204.94412375608076Q-51.4802237348492 207.75032085709728 -57.48021902945627 207.75783515632946L-57.48021902945627 207.75783515632946Q-68.58021032447937 207.771736609909 -74.08865959783873 201.02863001110555Q-79.59710887119807 194.28552341230207 -79.61126080141868 182.9855322741254L-79.61126080141868 182.9855322741254L-79.61376556782942 180.98553384258972Q-79.62779225972949 169.78554262598985 -74.3362500027961 163.02891028856845Q-69.04470774586272 156.2722779511471 -58.94471566660747 156.2596288807729L-58.94471566660747 156.2596288807729Q-53.54471990146111 156.25286601146396 -49.09196814824239 158.44729118088935Q-44.63921639502368 160.64171635031477 -41.98383322545582 164.93839416262225Q-39.32845005588797 169.23507197492978 -39.320434803373644 175.635066955844L-39.320434803373644 175.635066955844Q-39.31667765375755 178.63506460314753 -39.912544318640556 181.93581344510466L-39.912544318640556 181.93581344510466L-70.61252024271343 181.9742616095093L-70.60876309309734 184.97425925681284Q-70.59561306944103 195.47425102237523 -67.33991727461112 200.02017720870148Q-64.08422147978122 204.56610339502777 -56.78422720467594 204.5569609976286L-56.78422720467594 204.5569609976286Q-52.18423081214385 204.55120003488395 -49.137238923744796 202.14738214826474Q-46.09024703534574 199.74356426164553 -45.09763688048953 193.84231650540988L-45.09763688048953 193.84231650540988ZM-58.94070804035031 159.45962637123L-58.94070804035031 159.45962637123Q-64.8407034133806 159.46701543214166 -67.73506541468322 163.9706438143925Q-70.62942741598583 168.47427219664337 -70.61652786897059 178.77426411905222L-70.61652786897059 178.77426411905222L-48.11654551419406 178.74608549693153L-48.116921229155665 178.44608573220114Q-47.91854948416907 177.1458362750619 -47.820115041598996 175.89571201703157Q-47.72168059902891 174.64558775900122 -47.72293298223427 173.64558854323337L-47.72293298223427 173.64558854323337Q-47.7323258562745 166.14559442497452 -50.83651890889279 162.79947944008885Q-53.94071196151108 159.4533644552032 -58.94070804035031 159.45962637123ZM 21.308987704806622 203.36493207939344L 26.810997789145947 204.04895330116094L 26.818259527867166 206.54894275456886L 11.418324494874481 206.59367506509156L 11.395377400515436 198.69370839232258Q 8.30875207753668 203.30269354260741  4.565012992725072 205.46357708062004Q 0.8212739079134606 207.6244606186327 -3.778706686357079 207.63782221787972L-3.778706686357079 207.63782221787972Q-12.378670406080266 207.66280259908072 -17.14738565345602 201.22662711285864Q-21.916100900831776 194.79045162663655 -21.950376307595917 182.99050140655126L-21.950376307595917 182.99050140655126L-21.95618569857289 180.99050984382495Q-21.989008757592792 169.69055751442122 -16.45863886557453 162.92446493025878Q-10.928268973556271 156.15837234609631 -1.2283098943336088 156.130196799858L-1.2283098943336088 156.130196799858Q 5.871660153344833 156.10957346188974  10.784420142173664 160.49532189199408L 10.784420142173664 160.49532189199408L 10.726907171501626 140.69540542100347Q 10.716740737291923 137.1954201862324  10.414999185589885 136.59629412606105Q 10.113257633887848 135.99716806588972  8.512683444609092 135.80181642239867L 8.512683444609092 135.80181642239867L 3.0112542993674616 135.31779435690376L 3.0034116215485476 132.61780574722323L 18.903344545222808 132.57162108895628L 19.09476397791408 198.4713430807886Q 19.10493041212378 201.97132831555967  19.406671963825822 202.57045437573103Q 19.708413515527866 203.16958043590236  21.308987704806622 203.36493207939344L 21.308987704806622 203.36493207939344ZM-12.9649377527699 177.9643802403391L-12.941700188862008 185.96434649124438Q-12.914396051270232 195.36430683605806 -10.151626992372197 199.75630036146265Q-7.3888579334741635 204.14829388686718 -2.4888786047946754 204.1340608789736L-2.4888786047946754 204.1340608789736Q 0.7111078955674431 204.12476585341045  4.1052841612252156 202.11489832602328Q 7.499460426882989 200.1050307986361  10.881727441037967 193.99518056766L 10.881727441037967 193.99518056766L 10.798653150067247 165.3953012206736Q 6.381534008687268 159.50810677078024 -0.7184360389911734 159.5287301087485L-0.7184360389911734 159.5287301087485Q-7.118409039715407 159.54732015987483 -10.054163586843146 164.45586834024536Q-12.989918133970887 169.36441652061586 -12.9649377527699 177.9643802403391L-12.9649377527699 177.9643802403391ZM 43.43101989277328 160.18645217198727L 37.92904416164504 159.70868334287024L 37.918132682148816 157.00870539117966L 53.31800692512466 156.94646954516415L 53.3503372347431 164.9464042168399Q 56.83131459670041 160.23229808677232  60.37259683654658 158.0679690688663Q 63.91387907639273 155.90364005096023  67.61384886204277 155.88868728276168L 67.61384886204277 155.88868728276168Q 70.81382273071307 155.8757551589143  73.62147831433397 157.76442403507085Q 76.42913389795488 159.6530929112274  78.34609179502753 163.84538016532278L 78.34609179502753 163.84538016532278L 71.86190590022998 167.7716166943297Q 70.34736950996248 164.17770802512908  68.44172722125627 162.7853979061202Q 66.53608493255005 161.3930877871113  64.23610371444326 161.40238275112662L 64.23610371444326 161.40238275112662Q 61.73612412954458 161.41248597288237  59.292610198267575 163.02237406453818Q 56.84909626699056 164.632262156194  53.86690243540229 169.04435009172258L 53.86690243540229 169.04435009172258L 53.98531219437985 198.34411082673506Q 53.999456704837925 201.8440822455932  54.30208109268227 202.4928645510562Q 54.604705480526604 203.14164685651912  56.20509654373198 203.23517997799138L 56.20509654373198 203.23517997799138L 63.7074600716494 203.80486541309978L 63.7179674222754 206.4048441813944L 38.11817647291296 206.50830117217342L 38.10766912228696 203.9083224038788L 43.60519943584266 203.28610021564043Q 45.204378112437354 203.07963578692485  45.50195088940381 202.47842829993849Q 45.79952366637028 201.87722081295212  45.7853791559122 198.37724939409398L 45.7853791559122 198.37724939409398L 45.65080424212542 165.07752132324362Q 45.63665973166735 161.57754990438548  45.33423740825812 160.9787671906205Q 45.031815084848894 160.3799844768555  43.43101989277328 160.18645217198727L 43.43101989277328 160.18645217198727ZM 123.65493367707303 193.23092496755223L 128.96212915682088 194.70526418894738Q 127.19505096235103 201.5138936145094  122.2586562635835 204.33781064196967Q 117.32226156481597 207.1617276694299  111.32233179393471 207.19075773130743L 111.32233179393471 207.19075773130743Q 100.22246171780435 207.24446334578087  94.68986727488429 200.52115324359386Q 89.15727283196422 193.79784314140682  89.10259954876153 182.4979754062471L 89.10259954876153 182.4979754062471L 89.09292286146902 180.49799881595334Q 89.03873341263095 169.2981299103083  94.30601255729717 162.52256569674174Q 99.5732917019634 155.74700148317513  109.67317348294686 155.69813421234792L 109.67317348294686 155.69813421234792Q 115.07311027674001 155.67200715665814  119.53370254616539 157.85045077675545Q 123.99429481559075 160.02889439685273  126.6650686754089 164.31602245532173Q 129.33584253522702 168.60315051379072  129.36680793456307 175.00307560273075L 129.36680793456307 175.00307560273075Q 129.38132296550182 178.0030404881714  128.79729652244635 181.30590486834382L 128.79729652244635 181.30590486834382L 98.09765586143719 181.4544420182839L 98.11217089237596 184.45440690372456Q 98.16297350066165 194.95428400276677  101.43494992347946 199.48850612883473Q 104.70692634629728 204.02272825490272  112.00684090086949 203.98740834628504L 112.00684090086949 203.98740834628504Q 116.60678705854515 203.96515196551226  119.6451393339921 201.55042310903866Q 122.68349160943907 199.13569425256506  123.65493367707303 193.23092496755223L 123.65493367707303 193.23092496755223ZM 109.68865618261489 158.89809675681792L 109.68865618261489 158.89809675681792Q 103.7887252412483 158.92664298433084  100.91053173173052 163.44062150906595Q 98.03233822221272 167.95460003380106  98.08217316176916 178.25447947381392L 98.08217316176916 178.25447947381392L 120.58190980257392 178.14561674177313L 120.58045829948004 177.84562025322904Q 120.77416611176929 176.5446678008089  120.86811701172616 175.29419859751064Q 120.96206791168302 174.04372939421245  120.95722956803677 173.04374109906556L 120.95722956803677 173.04374109906556Q 120.92094199068984 165.54382888546397  117.80476982451957 162.20886696202533Q 114.68859765834928 158.87390503858666  109.68865618261489 158.89809675681792ZM 176.48620072975837 200.0550583378758L 179.14158741503581 191.5410157286536L 181.74155166188595 191.52738065985665L 181.8165445402691 205.82718401753232L 144.91705195997318 206.0206971093042L 144.9039413168992 203.52073148733294L 171.47387431777517 159.5807876966433L 156.47408058594758 159.65945155508717Q 153.1741259649455 159.67675760394482  152.42649619410741 160.1306846088218Q 151.67886642326934 160.58461161369885  151.08778991128656 162.28773479097703L 151.08778991128656 162.28773479097703L 148.4324032260091 170.80177740019926L 145.83243897915895 170.8154124689962L 145.75744610077584 156.51560911132054L 180.5569675586159 156.33310895973082L 180.57007820168985 158.8330745817021L 154.2001424505716 202.7719695209458L 171.09991005509735 202.68334157376574Q 174.4998633009783 202.66551109918512  175.24775528467782 202.26158340674755Q 175.99564726837738 201.8576557143099  176.48620072975837 200.0550583378758L 176.48620072975837 200.0550583378758Z"></path></svg>